# xmcd
#
# Track frame offsets: 
#        183
#        14730
#        26553
#        45378
#        65313
#        87298
#        105755
#        128683
#        138020
#        152928
#        179668
#
# Disc length: 2519 seconds
#
# Revision: 5
# Processed by: cddbd v1.5.2PL0 Copyright (c) Steve Scherf et al.
# Submitted via: ExactAudioCopy v0.99pb4
#
DISCID=8509d50b
DTITLE=Carter U.S.M. - 30 Something
DYEAR=1991
DGENRE=Rock
TTITLE0=Surfin' USM
TTITLE1=My Second To Last Will And Testament
TTITLE2=Anytime Anyplace Anywhere
TTITLE3=A Prince In A Pauper's Grave
TTITLE4=Shoppers' Paradise
TTITLE5=Billy's Smart Circus
TTITLE6=Bloodsport For All
TTITLE7=Sealed With A Glasgow Kiss
TTITLE8=Say It With Flowers
TTITLE9=Falling On A Bruise
TTITLE10=The Final Comedown
EXTD=
EXTT0=
EXTT1=
EXTT2=
EXTT3=
EXTT4=
EXTT5=
EXTT6=
EXTT7=
EXTT8=
EXTT9=
EXTT10=
PLAYORDER=
